<svg width="24" height="24" viewBox="0 0 24 24" fill="none" xmlns="http://www.w3.org/2000/svg">
<path d="M18.71 19.5C18.44 20.68 17.63 22.05 16.51 22.05C15.39 22.05 15.04 21.35 13.64 21.35C12.24 21.35 11.81 22.05 10.76 22.05C9.71 22.05 8.94 20.75 8.64 19.54C7.74 16.48 8.9 11.62 11.64 11.62C12.9 11.62 13.76 12.4 14.27 12.4C14.78 12.4 15.8 11.35 17.27 11.35C17.74 11.35 19.76 11.4 20.63 13.93C20.54 13.99 19.38 14.63 19.38 16.17C19.38 18.11 21.13 18.78 21.13 18.78C21.13 18.78 20.68 20.17 18.71 19.5ZM13 3.5C13.73 2.67 14.94 2.04 15.94 2.04C16.07 3.17 15.6 4.35 14.9 5.19C14.21 6.04 13.07 6.7 11.95 6.61C11.8 5.46 12.36 4.26 13 3.5Z" fill="white"/>
</svg>